<svg width="141" height="17" viewBox="0 0 141 17" fill="none" xmlns="http://www.w3.org/2000/svg">
<path d="M1.15418 16.4211C0.992845 16.4211 0.860845 16.3698 0.758179 16.2671C0.655512 16.1645 0.604178 16.0325 0.604178 15.8711V1.57114C0.604178 1.40981 0.655512 1.27781 0.758179 1.17514C0.860845 1.07248 0.992845 1.02114 1.15418 1.02114H4.05818C4.20485 1.02114 4.32951 1.07248 4.43218 1.17514C4.54951 1.27781 4.60818 1.40981 4.60818 1.57114V13.0991H11.2522C11.4135 13.0991 11.5455 13.1578 11.6482 13.2751C11.7655 13.3778 11.8242 13.5098 11.8242 13.6711V15.8711C11.8242 16.0325 11.7655 16.1645 11.6482 16.2671C11.5455 16.3698 11.4135 16.4211 11.2522 16.4211H1.15418ZM14.9411 16.4211C14.7798 16.4211 14.6478 16.3698 14.5451 16.2671C14.4425 16.1645 14.3911 16.0325 14.3911 15.8711V1.57114C14.3911 1.40981 14.4425 1.27781 14.5451 1.17514C14.6478 1.07248 14.7798 1.02114 14.9411 1.02114H17.8891C18.0505 1.02114 18.1825 1.07248 18.2851 1.17514C18.3878 1.27781 18.4391 1.40981 18.4391 1.57114V15.8711C18.4391 16.0325 18.3878 16.1645 18.2851 16.2671C18.1825 16.3698 18.0505 16.4211 17.8891 16.4211H14.9411ZM22.7339 16.4211C22.5873 16.4211 22.4553 16.3698 22.3379 16.2671C22.2353 16.1645 22.1839 16.0325 22.1839 15.8711V1.57114C22.1839 1.40981 22.2353 1.27781 22.3379 1.17514C22.4553 1.07248 22.5873 1.02114 22.7339 1.02114H25.1099C25.3446 1.02114 25.5206 1.08714 25.6379 1.21914C25.7699 1.33648 25.8506 1.43181 25.8799 1.50514L29.7519 8.45714L33.6239 1.50514C33.6679 1.43181 33.7413 1.33648 33.8439 1.21914C33.9613 1.08714 34.1446 1.02114 34.3939 1.02114H36.7479C36.9093 1.02114 37.0413 1.07248 37.1439 1.17514C37.2613 1.27781 37.3199 1.40981 37.3199 1.57114V15.8711C37.3199 16.0325 37.2613 16.1645 37.1439 16.2671C37.0413 16.3698 36.9093 16.4211 36.7479 16.4211H34.1299C33.9686 16.4211 33.8293 16.3698 33.7119 16.2671C33.6093 16.1645 33.5579 16.0325 33.5579 15.8711V7.62114L31.0719 12.2191C31.0133 12.3511 30.9253 12.4685 30.8079 12.5711C30.6906 12.6738 30.5293 12.7251 30.3239 12.7251H29.1799C28.9746 12.7251 28.8133 12.6738 28.6959 12.5711C28.5786 12.4685 28.4833 12.3511 28.4099 12.2191L25.9239 7.62114V15.8711C25.9239 16.0325 25.8726 16.1645 25.7699 16.2671C25.6673 16.3698 25.5353 16.4211 25.3739 16.4211H22.7339ZM40.1612 16.4211C40.0439 16.4211 39.9339 16.3771 39.8312 16.2891C39.7432 16.1865 39.6992 16.0765 39.6992 15.9591C39.6992 15.8858 39.7065 15.8198 39.7212 15.7611L44.8912 1.63714C44.9352 1.47581 45.0232 1.33648 45.1552 1.21914C45.3019 1.08714 45.4999 1.02114 45.7492 1.02114H49.0052C49.2545 1.02114 49.4452 1.08714 49.5772 1.21914C49.7239 1.33648 49.8192 1.47581 49.8632 1.63714L55.0112 15.7611C55.0405 15.8198 55.0552 15.8858 55.0552 15.9591C55.0552 16.0765 55.0039 16.1865 54.9012 16.2891C54.8132 16.3771 54.7032 16.4211 54.5712 16.4211H51.8652C51.6452 16.4211 51.4765 16.3698 51.3592 16.2671C51.2565 16.1498 51.1905 16.0471 51.1612 15.9591L50.3032 13.7151H44.4292L43.5932 15.9591C43.5639 16.0471 43.4979 16.1498 43.3952 16.2671C43.2925 16.3698 43.1165 16.4211 42.8672 16.4211H40.1612ZM45.3312 10.5471H49.4232L47.3552 4.73914L45.3312 10.5471ZM70.6752 16.6411C69.2819 16.6411 68.0865 16.4138 67.0892 15.9591C66.1065 15.5045 65.3365 14.8371 64.7792 13.9571C64.2365 13.0771 63.9359 11.9845 63.8772 10.6791C63.8625 10.0778 63.8552 9.43248 63.8552 8.74314C63.8552 8.05381 63.8625 7.39381 63.8772 6.76314C63.9359 5.48714 64.2439 4.40914 64.8012 3.52914C65.3585 2.63448 66.1359 1.95981 67.1332 1.50514C68.1305 1.03581 69.3112 0.801142 70.6752 0.801142C71.6432 0.801142 72.5379 0.925809 73.3592 1.17514C74.1805 1.40981 74.8992 1.76181 75.5152 2.23114C76.1312 2.68581 76.6079 3.24314 76.9452 3.90314C77.2972 4.54848 77.4805 5.28181 77.4952 6.10314C77.5099 6.23514 77.4659 6.34514 77.3632 6.43314C77.2752 6.52114 77.1652 6.56514 77.0332 6.56514H74.0632C73.8725 6.56514 73.7259 6.52848 73.6232 6.45514C73.5205 6.36714 73.4325 6.21314 73.3592 5.99314C73.1539 5.21581 72.8165 4.68781 72.3472 4.40914C71.8925 4.11581 71.3279 3.96914 70.6532 3.96914C69.8465 3.96914 69.2085 4.19648 68.7392 4.65114C68.2699 5.09114 68.0132 5.83181 67.9692 6.87314C67.9252 8.07581 67.9252 9.30781 67.9692 10.5691C68.0132 11.6105 68.2699 12.3585 68.7392 12.8131C69.2085 13.2531 69.8465 13.4731 70.6532 13.4731C71.3279 13.4731 71.8999 13.3265 72.3692 13.0331C72.8385 12.7398 73.1685 12.2118 73.3592 11.4491C73.4179 11.2291 73.4985 11.0825 73.6012 11.0091C73.7185 10.9211 73.8725 10.8771 74.0632 10.8771H77.0332C77.1652 10.8771 77.2752 10.9211 77.3632 11.0091C77.4659 11.0971 77.5099 11.2071 77.4952 11.3391C77.4805 12.1605 77.2972 12.9011 76.9452 13.5611C76.6079 14.2065 76.1312 14.7638 75.5152 15.2331C74.8992 15.6878 74.1805 16.0398 73.3592 16.2891C72.5379 16.5238 71.6432 16.6411 70.6752 16.6411ZM86.7605 16.6411C85.4111 16.6411 84.2378 16.4211 83.2405 15.9811C82.2431 15.5411 81.4658 14.8811 80.9085 14.0011C80.3511 13.1065 80.0431 11.9918 79.9845 10.6571C79.9698 10.0265 79.9625 9.39581 79.9625 8.76514C79.9625 8.13448 79.9698 7.49648 79.9845 6.85114C80.0431 5.53114 80.3511 4.42381 80.9085 3.52914C81.4805 2.61981 82.2651 1.93781 83.2625 1.48314C84.2598 1.02848 85.4258 0.801142 86.7605 0.801142C88.0805 0.801142 89.2391 1.02848 90.2365 1.48314C91.2485 1.93781 92.0405 2.61981 92.6125 3.52914C93.1845 4.42381 93.4925 5.53114 93.5365 6.85114C93.5658 7.49648 93.5805 8.13448 93.5805 8.76514C93.5805 9.39581 93.5658 10.0265 93.5365 10.6571C93.4778 11.9918 93.1698 13.1065 92.6125 14.0011C92.0551 14.8811 91.2778 15.5411 90.2805 15.9811C89.2831 16.4211 88.1098 16.6411 86.7605 16.6411ZM86.7605 13.4731C87.5378 13.4731 88.1685 13.2385 88.6525 12.7691C89.1511 12.2998 89.4151 11.5518 89.4445 10.5251C89.4738 9.87981 89.4885 9.27114 89.4885 8.69914C89.4885 8.12714 89.4738 7.53314 89.4445 6.91714C89.4151 6.22781 89.2831 5.67048 89.0485 5.24514C88.8285 4.80514 88.5205 4.48247 88.1245 4.27714C87.7285 4.07181 87.2738 3.96914 86.7605 3.96914C86.2618 3.96914 85.8145 4.07181 85.4185 4.27714C85.0225 4.48247 84.7071 4.80514 84.4725 5.24514C84.2378 5.67048 84.1058 6.22781 84.0765 6.91714C84.0618 7.53314 84.0545 8.12714 84.0545 8.69914C84.0545 9.27114 84.0618 9.87981 84.0765 10.5251C84.1205 11.5518 84.3845 12.2998 84.8685 12.7691C85.3525 13.2385 85.9831 13.4731 86.7605 13.4731ZM97.3406 16.4211C97.1793 16.4211 97.0473 16.3698 96.9446 16.2671C96.8419 16.1645 96.7906 16.0325 96.7906 15.8711V1.57114C96.7906 1.40981 96.8419 1.27781 96.9446 1.17514C97.0473 1.07248 97.1793 1.02114 97.3406 1.02114H103.061C104.498 1.02114 105.723 1.25581 106.735 1.72514C107.747 2.17981 108.524 2.85448 109.067 3.74914C109.609 4.62914 109.903 5.72181 109.947 7.02714C109.961 7.67248 109.969 8.23714 109.969 8.72114C109.969 9.20514 109.961 9.76248 109.947 10.3931C109.888 11.7571 109.595 12.8865 109.067 13.7811C108.553 14.6758 107.798 15.3431 106.801 15.7831C105.818 16.2085 104.608 16.4211 103.171 16.4211H97.3406ZM100.729 13.2531H103.061C103.691 13.2531 104.212 13.1578 104.623 12.9671C105.048 12.7618 105.363 12.4465 105.569 12.0211C105.789 11.5958 105.906 11.0385 105.921 10.3491C105.95 9.92381 105.965 9.54248 105.965 9.20514C105.979 8.86781 105.979 8.53048 105.965 8.19314C105.965 7.85581 105.95 7.48181 105.921 7.07114C105.891 6.07381 105.627 5.34781 105.129 4.89314C104.645 4.42381 103.919 4.18914 102.951 4.18914H100.729V13.2531ZM113.749 16.4211C113.587 16.4211 113.455 16.3698 113.353 16.2671C113.25 16.1645 113.199 16.0325 113.199 15.8711V1.57114C113.199 1.40981 113.25 1.27781 113.353 1.17514C113.455 1.07248 113.587 1.02114 113.749 1.02114H124.023C124.184 1.02114 124.316 1.07248 124.419 1.17514C124.521 1.27781 124.573 1.40981 124.573 1.57114V3.63914C124.573 3.80047 124.521 3.93247 124.419 4.03514C124.316 4.13781 124.184 4.18914 124.023 4.18914H117.005V7.15914H123.539C123.7 7.15914 123.832 7.21781 123.935 7.33514C124.037 7.43781 124.089 7.56981 124.089 7.73114V9.64514C124.089 9.79181 124.037 9.92381 123.935 10.0411C123.832 10.1438 123.7 10.1951 123.539 10.1951H117.005V13.2531H124.199C124.36 13.2531 124.492 13.3045 124.595 13.4071C124.697 13.5098 124.749 13.6418 124.749 13.8031V15.8711C124.749 16.0325 124.697 16.1645 124.595 16.2671C124.492 16.3698 124.36 16.4211 124.199 16.4211H113.749ZM133.651 16.6411C132.185 16.6411 130.967 16.4358 129.999 16.0251C129.031 15.5998 128.298 15.0498 127.799 14.3751C127.301 13.7005 127.037 12.9818 127.007 12.2191C127.007 12.1018 127.051 11.9991 127.139 11.9111C127.242 11.8085 127.359 11.7571 127.491 11.7571H130.263C130.469 11.7571 130.623 11.7938 130.725 11.8671C130.843 11.9405 130.945 12.0358 131.033 12.1531C131.151 12.3731 131.312 12.5858 131.517 12.7911C131.737 12.9965 132.016 13.1651 132.353 13.2971C132.705 13.4145 133.138 13.4731 133.651 13.4731C134.502 13.4731 135.14 13.3411 135.565 13.0771C136.005 12.8131 136.225 12.4538 136.225 11.9991C136.225 11.6765 136.108 11.4125 135.873 11.2071C135.639 10.9871 135.257 10.7965 134.729 10.6351C134.216 10.4591 133.527 10.2831 132.661 10.1071C131.547 9.87248 130.593 9.57181 129.801 9.20514C129.024 8.82381 128.43 8.33248 128.019 7.73114C127.609 7.11514 127.403 6.35248 127.403 5.44314C127.403 4.54848 127.653 3.74914 128.151 3.04514C128.665 2.34114 129.376 1.79114 130.285 1.39514C131.195 0.999142 132.273 0.801142 133.519 0.801142C134.531 0.801142 135.419 0.933142 136.181 1.19714C136.959 1.46114 137.611 1.81314 138.139 2.25314C138.667 2.69314 139.063 3.16248 139.327 3.66114C139.606 4.14514 139.753 4.62181 139.767 5.09114C139.767 5.20848 139.723 5.31848 139.635 5.42114C139.547 5.50914 139.437 5.55314 139.305 5.55314H136.401C136.24 5.55314 136.101 5.52381 135.983 5.46514C135.866 5.40648 135.763 5.31114 135.675 5.17914C135.587 4.85647 135.353 4.57781 134.971 4.34314C134.605 4.09381 134.121 3.96914 133.519 3.96914C132.874 3.96914 132.368 4.08648 132.001 4.32114C131.649 4.54114 131.473 4.88581 131.473 5.35514C131.473 5.64848 131.569 5.90514 131.759 6.12514C131.965 6.34514 132.295 6.53581 132.749 6.69714C133.219 6.85848 133.857 7.02714 134.663 7.20314C135.998 7.45248 137.076 7.76781 137.897 8.14914C138.719 8.51581 139.32 8.99981 139.701 9.60114C140.083 10.1878 140.273 10.9285 140.273 11.8231C140.273 12.8205 139.987 13.6858 139.415 14.4191C138.858 15.1378 138.081 15.6878 137.083 16.0691C136.086 16.4505 134.942 16.6411 133.651 16.6411Z" fill="white"/>
<path d="M57.6473 16.4211C57.4859 16.4211 57.3539 16.3698 57.2513 16.2671C57.1486 16.1645 57.0973 16.0325 57.0973 15.8711V13.0771C57.0973 12.9305 57.1486 12.8058 57.2513 12.7031C57.3539 12.5858 57.4859 12.5271 57.6473 12.5271H60.4193C60.5806 12.5271 60.7126 12.5858 60.8153 12.7031C60.9326 12.8058 60.9913 12.9305 60.9913 13.0771V15.8711C60.9913 16.0325 60.9326 16.1645 60.8153 16.2671C60.7126 16.3698 60.5806 16.4211 60.4193 16.4211H57.6473Z" fill="#FF2E00"/>
</svg>
